<svg id="Layer_1" data-name="Layer 1" xmlns="http://www.w3.org/2000/svg" viewBox="0 0 259.32 141.67"><defs><style>.cls-1,.cls-3{fill:#59b1e3;}.cls-2{fill:#fff;}.cls-3{font-size:7.97px;font-family:OpenSans-Light, Open Sans;font-weight:300;}.cls-4,.cls-5{fill:none;stroke:#59b1e3;stroke-linecap:round;}.cls-4{stroke-width:6.13px;}.cls-5{stroke-width:6.12px;}</style></defs><path class="cls-1" d="M142.93,150.62a1.81,1.81,0,0,0-.59-.14,1.66,1.66,0,0,0-1.45.94c-2.69,6-6,13.47-10.56,13.47-1.52,0-2.18-.95-2.18-3.06,0-3.13,1.31-6.48,8.37-26.35a1.42,1.42,0,0,0-1.45-2,1.46,1.46,0,0,0-1.39,1c-3.2,8.29-8.37,21.61-8.59,27.29-.14,3.35,1.75,6.11,5.24,6.11,6.12,0,9.9-7.42,13.4-15.28a2.23,2.23,0,0,0,.14-.66A1.49,1.49,0,0,0,142.93,150.62Zm-4.81-20.81a2.48,2.48,0,1,0,0-5,2.48,2.48,0,1,0,0,5Z" transform="translate(-20.5 -82.14)"/><path class="cls-1" d="M172,150.62a2.1,2.1,0,0,0-.65-.14,1.56,1.56,0,0,0-1.38.94c-4.44,9.61-7.06,13.47-10.48,13.47-1.53,0-2.19-.95-2.19-3.06,0-5.6,5.68-15.14,5.68-21.62,0-3.85-1.6-6.84-6.84-6.84-2.4,0-4.66,1.38-6.77,3.57l.58-1.46a1.53,1.53,0,0,0-1.45-2,1.49,1.49,0,0,0-1.46,1c-2.84,7.79-7.42,21-11.21,31.44a1.52,1.52,0,0,0,1,2,1.58,1.58,0,0,0,2-1l5.1-14.41c2.33-6.19,7.86-16,12.3-16,2.84,0,3.78,1.67,3.78,3.78,0,6.34-5.67,14.78-5.67,21.62,0,3.57,1.74,6.11,5.24,6.11,5,0,8.37-4.29,13.32-15.28a2.23,2.23,0,0,0,.14-.66A1.56,1.56,0,0,0,172,150.62Z" transform="translate(-20.5 -82.14)"/><path class="cls-1" d="M184.34,150.48a1.49,1.49,0,0,0-1.53,1.16,12.41,12.41,0,0,0,.14,6.91c-2.4,3.42-5.46,6.34-8.15,6.34-2.33,0-3.2-1.82-3.2-4.44,0-7.5,3.86-14.56,5.75-17.69,2.11-3.64,4.73-6.19,7.49-6.19,2.48,0,4.3,1.61,4.3,4.66,0,3.35-1.38,8.37-3.64,12.88a7.06,7.06,0,0,1,.29-1.67A1.51,1.51,0,0,0,184.34,150.48Zm16.88,2.11a1.53,1.53,0,0,0-1.46-2.11,1.49,1.49,0,0,0-1.38.94c-2.55,6-5.09,8.81-8.15,8.81a4.43,4.43,0,0,1-3.71-1.53c3.35-5.68,5.68-12.81,5.68-17.39,0-4.37-2.48-7.65-7.28-7.79-3.64,0-7.21,2.54-10.26,7.64-2.41,3.93-6.19,11-6.19,19.43,0,4.22,1.6,7.35,6.33,7.35,3.49,0,7.21-3,9.9-6.62a8.56,8.56,0,0,0,5.53,2C194.6,163.28,198,159.94,201.22,152.59Z" transform="translate(-20.5 -82.14)"/><path class="cls-1" d="M202.82,164.89c-2.18,0-2.84-2.11-2.84-5.32.15-7.2,6.33-22.78,13-23,2.84,0,4.51,2,4.66,5.32a1.32,1.32,0,0,1-.08.51c-.51,1.16-1,2.62-1.67,4.15C213,154,208.72,164.89,202.82,164.89Zm28.89-14.27a2.19,2.19,0,0,0-.58-.14,1.73,1.73,0,0,0-1.45.87c-3.42,7.5-6.92,13.54-12.16,13.54-1.67,0-2.33-1.31-2.33-3.06s1.31-6.19,2.4-9.54c.66-2,9.32-26.78,10-28.89a1.54,1.54,0,0,0-1.46-2,1.5,1.5,0,0,0-1.38,1l-3.86,11.13-1.38,3.79a6.83,6.83,0,0,0-6.55-3.71c-8.81,0-16.09,17-16.09,26.56,0,4.37,1.9,7.86,6,7.86,3.71,0,6.7-2.76,9.25-6.4,0,4.07,2,6.4,5.38,6.4,6.7,0,10.77-6.18,15-15.28a2,2,0,0,0,.15-.66A1.56,1.56,0,0,0,231.71,150.62Z" transform="translate(-20.5 -82.14)"/><path class="cls-1" d="M279,190.55a15.77,15.77,0,0,0,.84-4.88,14.63,14.63,0,0,0-.8-4.76.54.54,0,0,0,0-.1,15,15,0,0,0-14.07-9.74H110.61v29.22h154.2A14.84,14.84,0,0,0,279,190.55Z" transform="translate(-20.5 -82.14)"/><path class="cls-1" d="M70.49,123.13c.18-5.33,1.66-11.22,4.53-12.46a2,2,0,0,1,2.61,1C78.53,113.8,75.46,119.6,70.49,123.13Zm-5.91,4.55c-3.11,2.11-6.74,4.45-10.37,6.78-17.53,10.94-40.35,25.4-31.88,45.08,4.2,9.77,14,14.66,23.15,10.73a2.92,2.92,0,0,0,1.75-3.84,3,3,0,0,0-4-1.69c-5.74,2.47-12.38-.39-15.35-7.3-6.73-15.64,14.21-28.35,29.51-38,2.57-1.57,5-3.08,7.39-4.72,1,18.87,5,60.54,11.16,74.75,4.21,9.77,10.78,16.06,20.94,11.68,17.34-7.46,16.94-39.26,16.57-70.62-.38-28.87-.72-57.3,12.11-62.67a2.92,2.92,0,0,0,1.56-3.92,3,3,0,0,0-4.05-1.5c-16.42,7.07-16,37.47-15.6,68.2.42,29.32.69,59-13,64.91-6,2.58-10.19-1.79-13.17-8.7-5.44-12.64-10.13-59.44-10.64-76.06,8.19-6.45,15.44-15.45,12.81-21.57-1.8-4.17-6.16-5.69-10.72-3.73C66.13,108.32,64.19,118.89,64.58,127.68Z" transform="translate(-20.5 -82.14)"/><path class="cls-2" d="M74.4,123.69c.39-5.32,2.09-11.15,5-12.27A1.93,1.93,0,0,1,82,112.56C82.79,114.68,79.5,120.36,74.4,123.69ZM68.32,128c-3.19,2-6.91,4.18-10.62,6.37-18,10.27-41.3,23.83-33.59,43.83,3.82,9.92,13.46,15.18,22.72,11.61a2.91,2.91,0,0,0,1.89-3.77,3,3,0,0,0-3.9-1.84c-5.82,2.24-12.35-.87-15-7.88-6.13-15.89,15.29-27.8,31-36.88,2.62-1.47,5.12-2.88,7.56-4.44.29,18.9,2.72,60.7,8.29,75.13,3.83,9.93,10.15,16.46,20.47,12.48,17.61-6.79,18.43-38.59,19.27-69.93.73-28.87,1.48-57.3,14.5-62.17a2.91,2.91,0,0,0,1.71-3.85,3,3,0,0,0-4-1.65c-16.69,6.43-17.43,36.83-18.21,67.54-.71,29.32-1.58,59-15.48,64.37-6.09,2.34-10.12-2.19-12.83-9.2-5-12.84-7.84-59.78-7.71-76.41,8.43-6.14,16-14.84,13.62-21.07C86.3,106,82,104.34,77.36,106.13,70.61,108.73,68.27,119.21,68.32,128Z" transform="translate(-20.5 -82.14)"/><path class="cls-2" d="M134.15,187.71a.89.89,0,0,0-.28-.07.8.8,0,0,0-.69.45c-1.27,2.82-2.86,6.37-5,6.37-.72,0-1-.44-1-1.44,0-1.49.62-3.07,4-12.48a.68.68,0,0,0-.69-.93.71.71,0,0,0-.66.49c-1.51,3.92-4,10.23-4.06,12.92a2.5,2.5,0,0,0,2.48,2.89c2.89,0,4.68-3.51,6.34-7.23a1.25,1.25,0,0,0,.07-.31A.72.72,0,0,0,134.15,187.71Zm-2.28-9.85a1.18,1.18,0,1,0,0-2.35,1.18,1.18,0,1,0,0,2.35Z" transform="translate(-20.5 -82.14)"/><path class="cls-2" d="M140.59,181.44a4.2,4.2,0,0,1-.17-1.1,2.14,2.14,0,0,1,.52-1.52c.34-.34.72-.45.72,0A5.23,5.23,0,0,1,140.59,181.44Zm3.38,8.37c0-2.34-1-3.55-2.76-6.85a6.78,6.78,0,0,0,1.93-4.1,1.71,1.71,0,0,0-1.65-1.79c-1.42,0-2.52,1.51-2.52,3.3a5.84,5.84,0,0,0,.52,2.28c-.41.41-.76.79-1.17,1.27a.78.78,0,0,0-.18.45.71.71,0,0,0,.25.58.7.7,0,0,0,.51.18.71.71,0,0,0,.55-.28,8.67,8.67,0,0,1,.69-.79c1.83,3.2,2.35,4.2,2.38,5.72a4.58,4.58,0,0,1-4.86,4.68,3.63,3.63,0,0,1-3.75-3.58c.14-2.1,1.38-3.69,3.27-3.69a2,2,0,0,1,1.83,2,.72.72,0,0,0,1.44,0,3.48,3.48,0,0,0-3.3-3.48c-2.76,0-4.48,2-4.69,5.13a5.12,5.12,0,0,0,5.2,5A6,6,0,0,0,144,189.81Z" transform="translate(-20.5 -82.14)"/><path class="cls-2" d="M161.16,187.71a1.25,1.25,0,0,0-.31-.07.74.74,0,0,0-.66.45c-2,4.44-3.3,6.37-5,6.37-.72,0-1-.44-1-1.44,0-2.48,2.69-7.62,2.69-10.24,0-1.82-.8-3.23-3.24-3.23a4.63,4.63,0,0,0-3.14,1.61c1.17-3.27,1.93-5.44,2.24-6.33a.74.74,0,0,0-1.38-.52c-1.13,3.34-4.1,11.54-7.37,20.64a.73.73,0,0,0,.45.93.75.75,0,0,0,.93-.49c3.07-8.4,3.38-9.75,5.55-12.5.89-1.1,1.86-1.9,2.72-1.9a1.6,1.6,0,0,1,1.79,1.79c0,2.66-2.69,7.07-2.69,10.24,0,1.68.79,2.89,2.48,2.89,2.35,0,4-2,6.31-7.23a1.41,1.41,0,0,0,.07-.28A.77.77,0,0,0,161.16,187.71Z" transform="translate(-20.5 -82.14)"/><path class="cls-2" d="M179.73,188.37a.76.76,0,0,0-.76-.73.74.74,0,0,0-.66.45c-1.1,2.55-2.2,4.17-4,4.17a2.1,2.1,0,0,1-1.62-.73c1.2-2.1,4.1-7.85,5.61-10.95a.91.91,0,0,0,.07-.35.72.72,0,0,0-.69-.72.81.81,0,0,0-.68.41c-1.07,2.24-3.76,7.51-4.79,9.48a4,4,0,0,1,.17-.83.74.74,0,0,0-.72-.93.69.69,0,0,0-.69.55,5.56,5.56,0,0,0,0,3.28c-1.55,2.2-2.17,3-3.27,3-.66,0-1-.34-1-1.44,0-1.73,1.87-6.76,4-12.51a.73.73,0,0,0-.73-1,.7.7,0,0,0-.65.44c-.38,1.07-2.31,6.51-2.93,8.07-1.86,4.65-3.31,6.4-5,6.4-.73,0-1-.41-1-1.44,0-1.35.66-3.21,4-12.51a.7.7,0,0,0-.69-1,.72.72,0,0,0-.66.44c-3,7.86-4.13,11.3-4.13,13s.82,2.89,2.48,2.89,2.79-1,3.79-2.45c.2,1.49.89,2.45,2.48,2.45s2.86-1.31,4.17-3.14a3.3,3.3,0,0,0,2.41.94c2.44,0,4.37-2.42,5.34-5.07A.9.9,0,0,0,179.73,188.37Z" transform="translate(-20.5 -82.14)"/><path class="cls-2" d="M180.42,194.46c-1,0-1.35-1-1.35-2.51.07-3.41,3-10.82,6.17-10.89,1.24,0,2.14.93,2.2,2.52l-.82,2.2C185.24,189.3,183.21,194.46,180.42,194.46Zm12.74-6.75a1.08,1.08,0,0,0-.31-.07.74.74,0,0,0-.65.45l0,.1c-1.13,2.55-2.79,6.27-4.92,6.27-.73,0-1-.41-1-1.44,0-1.52,1.14-4.52,2.38-8l1.72-4.61a.7.7,0,0,0-.65-1,.71.71,0,0,0-.69.45c-.17.45-.38,1-.59,1.55a3.22,3.22,0,0,0-3.13-1.83c-4.13,0-7.61,8.07-7.61,12.58,0,2.07.89,3.72,2.82,3.72,1.48,0,2.93-1,4.31-2.89,0,1.68.82,2.89,2.48,2.89,3.1,0,5-4.24,6.27-7.13l0-.1a.92.92,0,0,0,.07-.31A.74.74,0,0,0,193.16,187.71Z" transform="translate(-20.5 -82.14)"/><path class="cls-2" d="M206.77,187.71a1.16,1.16,0,0,0-.31-.07.73.73,0,0,0-.65.45c-1.31,3-3,6.37-5,6.37a1.17,1.17,0,0,1-1.1-1.27c0-.79.38-3.45.38-4.24,0-1.48-.48-2.65-2.1-2.93l5.75-5.23a.73.73,0,0,0,.24-.52.75.75,0,0,0-.76-.72.61.61,0,0,0-.48.17c-4.58,4.2-7.75,7-8.2,7.44s-.34,1.27.41,1.27,1.18-1,2.17-1c1.18,0,1.49.66,1.52,1.55a10.36,10.36,0,0,1-.17,2,18.7,18.7,0,0,0-.21,2.31,2.56,2.56,0,0,0,2.55,2.62c2.86,0,4.69-3.55,6.34-7.23a1.25,1.25,0,0,0,.07-.31A.7.7,0,0,0,206.77,187.71Zm-15.67,7.68c2.3-6.23,4.37-12.12,7.37-20.56a.73.73,0,0,0-.73-1,.7.7,0,0,0-.65.45c-.28.79-1.62,4.62-7.37,20.64a.73.73,0,0,0,.45.93A.82.82,0,0,0,191.1,195.39Z" transform="translate(-20.5 -82.14)"/><path class="cls-2" d="M207.91,194.46c-1,0-1.35-1-1.35-2.51.07-3.41,3-10.82,6.17-10.89,1.24,0,2.14.93,2.21,2.52l-.83,2.2C212.73,189.3,210.7,194.46,207.91,194.46Zm12.74-6.75a1.08,1.08,0,0,0-.31-.07.74.74,0,0,0-.65.45l0,.1c-1.14,2.55-2.79,6.27-4.93,6.27-.72,0-1-.41-1-1.44,0-1.52,1.13-4.52,2.37-8l1.73-4.61a.71.71,0,0,0-.66-1,.72.72,0,0,0-.69.45c-.17.45-.38,1-.58,1.55a3.23,3.23,0,0,0-3.14-1.83c-4.13,0-7.61,8.07-7.61,12.58,0,2.07.89,3.72,2.82,3.72,1.48,0,2.93-1,4.31-2.89,0,1.68.83,2.89,2.48,2.89,3.1,0,5-4.24,6.27-7.13l0-.1a.92.92,0,0,0,.07-.31A.74.74,0,0,0,220.65,187.71Z" transform="translate(-20.5 -82.14)"/><path class="cls-2" d="M223.24,179.34a5.9,5.9,0,0,1-.38,1.45,2.15,2.15,0,0,1-.83-1.59.6.6,0,0,1,.66-.65C223,178.55,223.24,178.75,223.24,179.34Zm10.09,8.37a1.08,1.08,0,0,0-.31-.07.74.74,0,0,0-.65.45c-2,4.44-3.27,6.37-5,6.37-.76,0-1-.58-1-1.44a9,9,0,0,1,.31-1.9c.21-.86,1.86-5.79,2.31-6.92a.77.77,0,0,0-.41-1c-.38-.14-.83-.28-1.31-.42a26.65,26.65,0,0,1-3.14-1.2,7.59,7.59,0,0,0,.56-2.21,2,2,0,0,0-2-2.27,2.1,2.1,0,0,0-2.1,2.24,3.48,3.48,0,0,0,1.75,2.89l-.41,1-2.76,6a1.16,1.16,0,0,0-.07.31.79.79,0,0,0,.42.66,1.09,1.09,0,0,0,.34.06.69.69,0,0,0,.62-.41c2.76-6,3-6.51,3.14-6.92a24.74,24.74,0,0,0,3.75,1.37c-.31.76-1.82,5.34-2.1,6.45a8.08,8.08,0,0,0-.34,2.24c0,1.68.82,2.89,2.44,2.89h0c2.34,0,4.06-2.1,6.3-7.23a.92.92,0,0,0,.07-.31A.74.74,0,0,0,233.33,187.71Z" transform="translate(-20.5 -82.14)"/><path class="cls-2" d="M255,188.37a.78.78,0,0,0-.73-.73.76.76,0,0,0-.69.45c-1.86,4.34-3.23,6.37-4.92,6.37-.73,0-1-.44-1-1.44,0-3,2.66-6.93,2.66-10.24,0-1.82-.76-3.23-3.24-3.23-1.62,0-3.38,1.58-4.38,3.17a3,3,0,0,0-3.17-3.17,4.61,4.61,0,0,0-3.27,2,6.4,6.4,0,0,1,.35-.93.73.73,0,0,0-.69-1,.71.71,0,0,0-.69.49c-1.76,5-3.55,9.92-5.31,14.88a.73.73,0,0,0,.45.93.75.75,0,0,0,.93-.48l2.34-6.65c.21-.55,2.28-4.34,2.9-5.27,1-1.41,2-2.52,3-2.52,1.24,0,1.73.66,1.73,1.93a17.23,17.23,0,0,1-1.24,4.86c0,.07-2.31,6.82-2.35,6.92a.73.73,0,0,0,.69,1,.7.7,0,0,0,.69-.48c0,.07,2.28-6.69,2.34-6.89,1-2.79,3.69-7.31,5.69-7.31a1.58,1.58,0,0,1,1.79,1.79c0,2.83-2.69,7.1-2.69,10.24,0,1.68.83,2.89,2.52,2.89,3.06,0,5-4.24,6.23-7.13A1.78,1.78,0,0,0,255,188.37Z" transform="translate(-20.5 -82.14)"/><path class="cls-2" d="M255.73,194.46c-1,0-1.35-1-1.35-2.51.07-3.41,3-10.82,6.17-10.89,1.24,0,2.13.93,2.2,2.52l-.82,2.2C260.55,189.3,258.52,194.46,255.73,194.46Zm12.74-6.75a1.08,1.08,0,0,0-.31-.07.74.74,0,0,0-.65.45l0,.1c-1.13,2.55-2.79,6.27-4.92,6.27-.73,0-1-.41-1-1.44,0-1.52,1.14-4.52,2.38-8l1.72-4.61a.7.7,0,0,0-.65-1,.71.71,0,0,0-.69.45c-.17.45-.38,1-.59,1.55a3.22,3.22,0,0,0-3.13-1.83c-4.14,0-7.61,8.07-7.61,12.58,0,2.07.89,3.72,2.82,3.72,1.48,0,2.93-1,4.31-2.89,0,1.68.82,2.89,2.48,2.89,3.1,0,5-4.24,6.27-7.13l0-.1a.92.92,0,0,0,.07-.31A.74.74,0,0,0,268.47,187.71Z" transform="translate(-20.5 -82.14)"/><text class="cls-3" transform="translate(105.84 129.98)">W</text><text class="cls-3" transform="translate(112.94 129.98)">E</text><text class="cls-3" transform="translate(117.33 129.98)">B</text><text class="cls-3" transform="translate(124.39 129.98)">D</text><text class="cls-3" transform="translate(130.01 129.98)">E</text><text class="cls-3" transform="translate(134.41 129.98)">V</text><text class="cls-3" transform="translate(139 129.98)">E</text><text class="cls-3" transform="translate(143.39 129.98)">L</text><text class="cls-3" transform="translate(147.48 129.98)">O</text><text class="cls-3" transform="translate(153.56 129.98)">P</text><text class="cls-3" transform="translate(158.22 129.98)">E</text><text class="cls-3" transform="translate(162.61 129.98)">R</text><text class="cls-3" transform="translate(169.41 129.98)">&amp;</text><text class="cls-3" transform="translate(177.16 129.98)">D</text><text class="cls-3" transform="translate(182.78 129.98)">I</text><text class="cls-3" transform="translate(184.78 129.98)">G</text><text class="cls-3" transform="translate(190.54 129.98)">I</text><text class="cls-3" transform="translate(192.55 129.98)">T</text><text class="cls-3" transform="translate(196.72 129.98)">A</text><text class="cls-3" transform="translate(201.5 129.98)">L</text><text class="cls-3" transform="translate(207.65 129.98)">M</text><text class="cls-3" transform="translate(214.52 129.98)">A</text><text class="cls-3" transform="translate(219.3 129.98)">R</text><text class="cls-3" transform="translate(224.03 129.98)">K</text><text class="cls-3" transform="translate(228.65 129.98)">E</text><text class="cls-3" transform="translate(233.04 129.98)">T</text><text class="cls-3" transform="translate(237.22 129.98)">E</text><text class="cls-3" transform="translate(241.61 129.98)">R</text><line class="cls-4" x1="29.67" y1="46.53" x2="110.55" y2="46.53"/><line class="cls-5" x1="108.24" y1="136.31" x2="243.87" y2="136.31"/></svg>