<svg id="Layer_1" data-name="Layer 1" xmlns="http://www.w3.org/2000/svg" xmlns:xlink="http://www.w3.org/1999/xlink" viewBox="0 0 375 382.5"><defs><style>.cls-1,.cls-7,.cls-8{fill:none;}.cls-2{clip-path:url(#clip-path);}.cls-3,.cls-6{fill:#fff;}.cls-4{clip-path:url(#clip-path-2);}.cls-5{fill:#38b6ff;}.cls-6{font-size:9.61px;font-family:OpenSans-Light, Open Sans;font-weight:300;}.cls-7,.cls-8{stroke:#38b6ff;stroke-linecap:round;}.cls-7{stroke-width:6.13px;}.cls-8{stroke-width:6.12px;}</style><clipPath id="clip-path" transform="translate(0 8.04)"><rect class="cls-1" y="-8.04" width="375" height="382.5"/></clipPath><clipPath id="clip-path-2" transform="translate(0 8.04)"><rect class="cls-1" y="-8.04" width="375" height="375"/></clipPath></defs><g class="cls-2"><rect class="cls-3" width="375" height="382.5"/><rect class="cls-3" width="375" height="375"/></g><g class="cls-4"><path class="cls-5" d="M179.59,173.57a1.8,1.8,0,0,0-2.46,1c-3.24,7.2-7.28,16.23-12.72,16.23-1.84,0-2.63-1.14-2.63-3.68,0-3.78,1.58-7.81,10.09-31.76a1.71,1.71,0,0,0-1.76-2.37,1.76,1.76,0,0,0-1.66,1.22c-3.86,10-10.09,26.06-10.36,32.91-.17,4,2.11,7.37,6.32,7.37,7.37,0,11.93-8.95,16.15-18.43a2.73,2.73,0,0,0,.17-.79A1.79,1.79,0,0,0,179.59,173.57Zm-5.79-25.1a3,3,0,0,0,0-6,3,3,0,1,0,0,6Z" transform="translate(0 8.04)"/><path class="cls-5" d="M214.6,173.57a2.57,2.57,0,0,0-.79-.18,1.9,1.9,0,0,0-1.67,1.14c-5.35,11.58-8.51,16.23-12.63,16.23-1.85,0-2.64-1.14-2.64-3.68,0-6.76,6.85-18.25,6.85-26.06,0-4.65-1.93-8.25-8.25-8.25-2.89,0-5.61,1.67-8.16,4.3l.7-1.75a1.84,1.84,0,0,0-1.75-2.46,1.8,1.8,0,0,0-1.76,1.23c-3.42,9.39-8.95,25.27-13.51,37.9a1.83,1.83,0,0,0,1.14,2.37,1.91,1.91,0,0,0,2.37-1.23l6.14-17.37c2.81-7.46,9.48-19.3,14.83-19.3,3.42,0,4.56,2,4.56,4.56,0,7.63-6.84,17.81-6.84,26.06,0,4.3,2.11,7.37,6.32,7.37,6,0,10.09-5.18,16.05-18.43a2.45,2.45,0,0,0,.18-.79A1.89,1.89,0,0,0,214.6,173.57Z" transform="translate(0 8.04)"/><path class="cls-5" d="M229.51,173.39a1.8,1.8,0,0,0-1.84,1.4c-.62,2.2-.79,6.06.17,8.34-2.89,4.12-6.58,7.63-9.82,7.63-2.81,0-3.86-2.19-3.86-5.35,0-9,4.65-17.55,6.93-21.32,2.54-4.39,5.7-7.46,9-7.46,3,0,5.17,1.93,5.17,5.62,0,4-1.66,10.09-4.38,15.53a8.09,8.09,0,0,1,.35-2A1.83,1.83,0,0,0,229.51,173.39Zm20.36,2.54a1.86,1.86,0,0,0-1.76-2.54,1.79,1.79,0,0,0-1.66,1.14c-3.08,7.28-6.15,10.62-9.83,10.62a5.35,5.35,0,0,1-4.48-1.85c4-6.84,6.85-15.44,6.85-21,0-5.26-3-9.21-8.78-9.38-4.38,0-8.68,3.07-12.37,9.21-2.89,4.74-7.46,13.25-7.46,23.43,0,5.08,1.93,8.86,7.64,8.86,4.21,0,8.68-3.6,11.93-8a10.34,10.34,0,0,0,6.67,2.37C241.88,188.83,246,184.8,249.87,175.93Z" transform="translate(0 8.04)"/><path class="cls-5" d="M251.8,190.76c-2.64,0-3.43-2.54-3.43-6.4.18-8.69,7.64-27.47,15.71-27.73,3.42,0,5.44,2.37,5.61,6.41a1.85,1.85,0,0,1-.08.61c-.62,1.4-1.23,3.16-2,5C264.08,177.6,258.9,190.76,251.8,190.76Zm34.83-17.19a2.67,2.67,0,0,0-.7-.18,2.11,2.11,0,0,0-1.76,1.05c-4.12,9-8.33,16.32-14.65,16.32-2,0-2.81-1.58-2.81-3.68,0-2.28,1.58-7.46,2.9-11.5.79-2.45,11.23-32.28,12.11-34.83a1.86,1.86,0,0,0-1.76-2.46,1.81,1.81,0,0,0-1.67,1.14l-4.65,13.43L272,157.42c-1.41-2.72-4-4.47-7.9-4.47-10.62,0-19.39,20.53-19.39,32,0,5.27,2.28,9.48,7.19,9.48,4.48,0,8.08-3.34,11.15-7.72,0,4.91,2.37,7.72,6.49,7.72,8.07,0,13-7.46,18.07-18.43a2.45,2.45,0,0,0,.18-.79A1.89,1.89,0,0,0,286.63,173.57Z" transform="translate(0 8.04)"/><path class="cls-5" d="M343.62,221.7a18.75,18.75,0,0,0,1-5.88,17.55,17.55,0,0,0-1-5.74.61.61,0,0,1,0-.11,18,18,0,0,0-17-11.75h-186v35.23h185.9C334.76,233.35,341.23,228.48,343.62,221.7Z" transform="translate(0 8.04)"/><path class="cls-5" d="M92.27,140.42c.22-6.42,2-13.53,5.46-15a2.33,2.33,0,0,1,3.14,1.25C102,129.17,98.26,136.17,92.27,140.42Zm-7.13,5.49c-3.75,2.54-8.13,5.36-12.5,8.17C51.5,167.28,24,184.7,34.2,208.43c5.07,11.78,16.92,17.67,27.92,12.94a3.52,3.52,0,0,0,2.1-4.63,3.65,3.65,0,0,0-4.79-2c-6.91,3-14.91-.47-18.49-8.8-8.12-18.85,17.13-34.19,35.57-45.85,3.1-1.89,6-3.71,8.91-5.69,1.22,22.75,6.08,73,13.46,90.11,5.07,11.78,13,19.36,25.24,14.09,20.9-9,20.41-47.33,20-85.14-.45-34.81-.87-69.08,14.6-75.55a3.51,3.51,0,0,0,1.88-4.72,3.64,3.64,0,0,0-4.88-1.81c-19.79,8.52-19.29,45.17-18.81,82.21.51,35.35.83,71.15-15.67,78.25-7.23,3.11-12.29-2.16-15.87-10.48-6.56-15.25-12.22-71.66-12.83-91.69,9.87-7.79,18.61-18.63,15.44-26-2.17-5-7.43-6.86-12.93-4.5C87,122.57,84.67,135.31,85.14,145.91Z" transform="translate(0 8.04)"/><path class="cls-3" d="M97,141.1c.46-6.41,2.52-13.44,6-14.79a2.34,2.34,0,0,1,3.1,1.37C107.09,130.24,103.13,137.08,97,141.1Zm-7.34,5.21c-3.84,2.4-8.32,5.05-12.8,7.69-21.63,12.37-49.79,28.73-40.49,52.83,4.61,12,16.22,18.31,27.4,14A3.53,3.53,0,0,0,66,216.29a3.65,3.65,0,0,0-4.71-2.22c-7,2.71-14.88-1-18.15-9.5-7.38-19.16,18.43-33.51,37.31-44.46,3.17-1.77,6.18-3.48,9.12-5.35.35,22.78,3.28,73.17,10,90.57,4.62,12,12.24,19.85,24.69,15,21.22-8.18,22.21-46.51,23.22-84.3.88-34.81,1.78-69.07,17.49-74.94a3.52,3.52,0,0,0,2.06-4.65,3.66,3.66,0,0,0-4.81-2c-20.11,7.75-21,44.4-22,81.43-.85,35.34-1.9,71.13-18.66,77.59-7.34,2.83-12.2-2.63-15.46-11.09-6-15.48-9.46-72.07-9.3-92.11,10.16-7.4,19.31-17.9,16.42-25.4-2-5.11-7.15-7.14-12.74-5C92.41,123.06,89.59,135.7,89.64,146.31Z" transform="translate(0 8.04)"/><path class="cls-3" d="M169,218.28a1.06,1.06,0,0,0-.33-.08.92.92,0,0,0-.83.54c-1.54,3.4-3.45,7.68-6,7.68-.87,0-1.24-.54-1.24-1.75,0-1.78.75-3.69,4.77-15a.81.81,0,0,0-.83-1.12.85.85,0,0,0-.79.58c-1.82,4.73-4.77,12.34-4.9,15.57-.08,1.92,1,3.49,3,3.49,3.49,0,5.65-4.23,7.65-8.72a1.23,1.23,0,0,0,.08-.37A.85.85,0,0,0,169,218.28Zm-2.74-11.88a1.41,1.41,0,1,0,0-2.82,1.41,1.41,0,1,0,0,2.82Z" transform="translate(0 8.04)"/><path class="cls-3" d="M176.78,210.72a4.73,4.73,0,0,1-.21-1.33,2.58,2.58,0,0,1,.62-1.83c.42-.41.87-.54.87,0A6.27,6.27,0,0,1,176.78,210.72Zm4.07,10.09c0-2.82-1.17-4.28-3.33-8.26a8.16,8.16,0,0,0,2.33-5,2.05,2.05,0,0,0-2-2.15c-1.71,0-3,1.82-3,4a6.82,6.82,0,0,0,.63,2.74c-.5.5-.92,1-1.42,1.54a1,1,0,0,0-.2.54.91.91,0,0,0,.29.71.88.88,0,0,0,.62.2.84.84,0,0,0,.66-.33,8.39,8.39,0,0,1,.84-1c2.2,3.86,2.82,5.06,2.86,6.89a5.52,5.52,0,0,1-5.85,5.65,4.39,4.39,0,0,1-4.53-4.32c.16-2.53,1.66-4.44,3.94-4.44a2.46,2.46,0,0,1,2.21,2.45.87.87,0,0,0,1.74,0,4.2,4.2,0,0,0-4-4.2c-3.32,0-5.4,2.45-5.65,6.19a6.18,6.18,0,0,0,6.28,6.06A7.27,7.27,0,0,0,180.85,220.81Z" transform="translate(0 8.04)"/><path class="cls-3" d="M201.57,218.28a1.23,1.23,0,0,0-.37-.08.87.87,0,0,0-.79.54c-2.37,5.35-4,7.68-6,7.68-.88,0-1.25-.54-1.25-1.75,0-3,3.24-9.17,3.24-12.33,0-2.2-1-3.9-3.9-3.9a5.5,5.5,0,0,0-3.78,1.95c1.41-3.95,2.32-6.56,2.7-7.64a.88.88,0,0,0-.83-1.17.86.86,0,0,0-.83.54c-1.38,4-4.95,13.92-8.89,24.88a.87.87,0,0,0,.54,1.12.9.9,0,0,0,1.12-.58c3.69-10.13,4.07-11.75,6.69-15.08,1.08-1.32,2.24-2.28,3.28-2.28a1.93,1.93,0,0,1,2.16,2.16c0,3.2-3.24,8.51-3.24,12.33,0,2,.95,3.49,3,3.49,2.82,0,4.77-2.45,7.6-8.72a1.3,1.3,0,0,0,.08-.33A.91.91,0,0,0,201.57,218.28Z" transform="translate(0 8.04)"/><path class="cls-3" d="M224,219.07a.91.91,0,0,0-.92-.87.89.89,0,0,0-.79.54c-1.33,3.07-2.65,5-4.81,5a2.56,2.56,0,0,1-2-.87c1.46-2.53,5-9.47,6.77-13.21a1.24,1.24,0,0,0,.09-.41.88.88,0,0,0-.83-.88,1,1,0,0,0-.83.5c-1.29,2.7-4.53,9.06-5.78,11.42a4.88,4.88,0,0,1,.21-1,.88.88,0,0,0-.87-1.12.82.82,0,0,0-.83.66,6.66,6.66,0,0,0,0,3.95c-1.87,2.65-2.62,3.61-3.95,3.61-.79,0-1.24-.42-1.24-1.75,0-2.07,2.24-8.14,4.86-15.07a.88.88,0,0,0-.88-1.16.85.85,0,0,0-.79.54c-.45,1.28-2.78,7.85-3.53,9.71-2.24,5.61-4,7.73-6,7.73-.87,0-1.24-.5-1.24-1.75,0-1.62.79-3.86,4.86-15.07a.84.84,0,0,0-.83-1.16.83.83,0,0,0-.79.54c-3.57,9.46-5,13.62-5,15.69s1,3.49,3,3.49,3.37-1.24,4.57-2.95c.25,1.79,1.08,2.95,3,2.95s3.45-1.57,5-3.78a4,4,0,0,0,2.91,1.13c2.94,0,5.27-2.91,6.43-6.11A1,1,0,0,0,224,219.07Z" transform="translate(0 8.04)"/><path class="cls-3" d="M224.79,226.42c-1.25,0-1.62-1.21-1.62-3,.08-4.11,3.61-13,7.43-13.13,1.5,0,2.58,1.12,2.66,3l-1,2.66C230.6,220.19,228.15,226.42,224.79,226.42Zm15.36-8.14a1.23,1.23,0,0,0-.37-.08.89.89,0,0,0-.79.54l0,.12c-1.37,3.07-3.36,7.56-5.94,7.56-.87,0-1.25-.5-1.25-1.75,0-1.82,1.37-5.44,2.87-9.63l2.08-5.57a.85.85,0,0,0-.79-1.16.86.86,0,0,0-.83.54c-.21.54-.46,1.16-.71,1.87a3.88,3.88,0,0,0-3.78-2.2c-5,0-9.18,9.72-9.18,15.16,0,2.49,1.08,4.48,3.41,4.48,1.78,0,3.53-1.16,5.19-3.49,0,2,1,3.49,3,3.49,3.74,0,6-5.11,7.56-8.59l0-.13a1.23,1.23,0,0,0,.08-.37A.88.88,0,0,0,240.15,218.28Z" transform="translate(0 8.04)"/><path class="cls-3" d="M256.56,218.28a1.3,1.3,0,0,0-.37-.08.87.87,0,0,0-.79.54c-1.58,3.57-3.58,7.68-6,7.68a1.42,1.42,0,0,1-1.33-1.54c0-.95.46-4.15.46-5.11,0-1.78-.58-3.19-2.53-3.53l6.93-6.31a.87.87,0,0,0,.29-.62.91.91,0,0,0-.91-.87.74.74,0,0,0-.58.2c-5.52,5.07-9.35,8.43-9.89,9s-.41,1.54.5,1.54,1.42-1.25,2.62-1.25c1.41,0,1.79.79,1.83,1.87a13.23,13.23,0,0,1-.21,2.45,22.57,22.57,0,0,0-.25,2.79,3.07,3.07,0,0,0,3.07,3.15c3.45,0,5.65-4.27,7.65-8.72a1.23,1.23,0,0,0,.08-.37A.85.85,0,0,0,256.56,218.28Zm-18.9,9.26c2.78-7.52,5.28-14.62,8.89-24.79a.89.89,0,0,0-.87-1.17.85.85,0,0,0-.79.54c-.33,1-1.95,5.57-8.89,24.88a.87.87,0,0,0,.54,1.12A1,1,0,0,0,237.66,227.54Z" transform="translate(0 8.04)"/><path class="cls-3" d="M257.93,226.42c-1.25,0-1.62-1.21-1.62-3,.08-4.11,3.61-13,7.43-13.13,1.5,0,2.58,1.12,2.66,3l-1,2.66C263.74,220.19,261.29,226.42,257.93,226.42Zm15.37-8.14a1.29,1.29,0,0,0-.38-.08.89.89,0,0,0-.79.54l0,.12c-1.37,3.07-3.36,7.56-5.94,7.56-.87,0-1.24-.5-1.24-1.75,0-1.82,1.37-5.44,2.86-9.63l2.08-5.57a.85.85,0,0,0-.79-1.16.87.87,0,0,0-.83.54c-.21.54-.46,1.16-.71,1.87a3.87,3.87,0,0,0-3.78-2.2c-5,0-9.17,9.72-9.17,15.16,0,2.49,1.08,4.48,3.4,4.48,1.79,0,3.53-1.16,5.19-3.49,0,2,1,3.49,3,3.49,3.74,0,6-5.11,7.56-8.59l0-.13a1.25,1.25,0,0,0,.09-.37A.9.9,0,0,0,273.3,218.28Z" transform="translate(0 8.04)"/><path class="cls-3" d="M276.41,208.19a6.74,6.74,0,0,1-.46,1.74,2.58,2.58,0,0,1-1-1.91.72.72,0,0,1,.79-.79C276.08,207.23,276.41,207.48,276.41,208.19Zm12.17,10.09a1.23,1.23,0,0,0-.37-.08.87.87,0,0,0-.79.54c-2.37,5.35-3.95,7.68-6,7.68-.92,0-1.25-.71-1.25-1.75a10.44,10.44,0,0,1,.37-2.28c.25-1,2.25-7,2.79-8.35a.93.93,0,0,0-.5-1.2c-.46-.17-1-.33-1.58-.5a33.4,33.4,0,0,1-3.78-1.45,9.24,9.24,0,0,0,.67-2.66c0-1.66-.92-2.74-2.41-2.74a2.53,2.53,0,0,0-2.54,2.7,4.24,4.24,0,0,0,2.12,3.49l-.5,1.24-3.32,7.23a1.23,1.23,0,0,0-.08.37.94.94,0,0,0,.5.79,1.24,1.24,0,0,0,.41.08.84.84,0,0,0,.75-.49c3.32-7.27,3.61-7.85,3.78-8.35a30.73,30.73,0,0,0,4.53,1.66c-.38.91-2.21,6.44-2.54,7.77a9.63,9.63,0,0,0-.41,2.69c0,2,1,3.49,2.95,3.49h0c2.82,0,4.9-2.53,7.6-8.72a1.23,1.23,0,0,0,.08-.37A.9.9,0,0,0,288.58,218.28Z" transform="translate(0 8.04)"/><path class="cls-3" d="M314.75,219.07a.94.94,0,0,0-.88-.87.9.9,0,0,0-.83.54c-2.24,5.23-3.9,7.68-5.94,7.68-.87,0-1.24-.54-1.24-1.75,0-3.57,3.2-8.34,3.2-12.33,0-2.2-.92-3.9-3.91-3.9-1.95,0-4.07,1.91-5.27,3.82a3.55,3.55,0,0,0-3.82-3.82c-1.42,0-2.75.95-3.95,2.36a10,10,0,0,1,.42-1.12.88.88,0,0,0-.83-1.16.86.86,0,0,0-.84.58c-2.11,6-4.27,12-6.39,17.94a.87.87,0,0,0,.54,1.12.9.9,0,0,0,1.12-.58l2.82-8c.25-.67,2.75-5.24,3.49-6.36,1.21-1.7,2.45-3,3.62-3,1.49,0,2.07.79,2.07,2.33a20.67,20.67,0,0,1-1.49,5.85c0,.08-2.79,8.23-2.83,8.35a.88.88,0,0,0,.83,1.16.83.83,0,0,0,.83-.58c0,.08,2.75-8.06,2.83-8.31,1.2-3.36,4.44-8.8,6.85-8.8a1.91,1.91,0,0,1,2.16,2.16c0,3.41-3.24,8.56-3.24,12.33,0,2,1,3.49,3,3.49,3.7,0,6-5.11,7.52-8.59A2.39,2.39,0,0,0,314.75,219.07Z" transform="translate(0 8.04)"/><path class="cls-3" d="M315.58,226.42c-1.25,0-1.62-1.21-1.62-3,.08-4.11,3.61-13,7.43-13.13,1.5,0,2.58,1.12,2.66,3l-1,2.66C321.39,220.19,318.94,226.42,315.58,226.42Zm15.36-8.14a1.23,1.23,0,0,0-.37-.08.89.89,0,0,0-.79.54l0,.12c-1.37,3.07-3.37,7.56-5.94,7.56-.87,0-1.25-.5-1.25-1.75,0-1.82,1.37-5.44,2.87-9.63l2.08-5.57a.85.85,0,0,0-.79-1.16.86.86,0,0,0-.83.54c-.21.54-.46,1.16-.71,1.87a3.88,3.88,0,0,0-3.78-2.2c-5,0-9.18,9.72-9.18,15.16,0,2.49,1.08,4.48,3.41,4.48,1.78,0,3.53-1.16,5.19-3.49,0,2,1,3.49,3,3.49,3.74,0,6-5.11,7.56-8.59l0-.13a1.23,1.23,0,0,0,.08-.37A.88.88,0,0,0,330.94,218.28Z" transform="translate(0 8.04)"/><text class="cls-6" transform="translate(159.5 255.6)">WEB DEVELOPER &amp; DIGITAL MARKETER</text><line class="cls-7" x1="67.78" y1="155.15" x2="165.27" y2="155.15"/><line class="cls-8" x1="162.5" y1="263.38" x2="326.01" y2="263.38"/></g></svg>